<svg xmlns="http://www.w3.org/2000/svg" width="41" height="42" viewBox="0 0 41 42" fill="none">
  <g clip-path="url(#clip0_2898_396)">
    <path d="M31.3771 18.0681C31.4557 18.125 31.5309 18.1848 31.6026 18.2475C31.606 18.1723 31.6078 18.0966 31.6078 18.0203V10.3242C31.6078 9.30479 31.2028 8.32712 30.4819 7.60628C29.7611 6.88544 28.7834 6.48047 27.764 6.48047H21.7848V5.19922L21.7746 5.02668C21.7328 4.71934 21.581 4.43758 21.3472 4.23369C21.1135 4.02981 20.8137 3.91763 20.5036 3.91797L20.3293 3.92993C20.0226 3.97204 19.7415 4.12379 19.538 4.35713C19.3345 4.59047 19.2223 4.88961 19.2223 5.19922L19.2206 6.48047H13.2415C12.2223 6.48092 11.2451 6.88609 10.5246 7.60688C9.80415 8.32768 9.39942 9.30509 9.39942 10.3242V18.0203C9.39942 19.0397 9.80438 20.0174 10.5252 20.7382C11.2461 21.459 12.2237 21.864 13.2432 21.864H26.5408L26.575 21.7735L26.5887 21.7291L27.3574 19.3647L27.366 19.3442C27.5016 18.9595 27.7246 18.6115 28.0175 18.3275C28.3104 18.0435 28.6652 17.8314 29.0539 17.7077C29.4426 17.584 29.8548 17.5522 30.2579 17.6147C30.661 17.6773 31.0441 17.8325 31.3771 18.0681ZM16.6598 11.6055C16.9452 11.5974 17.2293 11.6466 17.4954 11.7503C17.7614 11.8539 18.004 12.0098 18.2087 12.2089C18.4134 12.4079 18.5761 12.6459 18.6873 12.9089C18.7984 13.1719 18.8556 13.4545 18.8556 13.74C18.8556 14.0255 18.7984 14.3082 18.6873 14.5712C18.5761 14.8341 18.4134 15.0722 18.2087 15.2712C18.004 15.4702 17.7614 15.6262 17.4954 15.7298C17.2293 15.8334 16.9452 15.8827 16.6598 15.8746C16.1042 15.8589 15.5765 15.6271 15.1891 15.2285C14.8016 14.8299 14.5848 14.2959 14.5848 13.74C14.5848 13.1841 14.8016 12.6502 15.1891 12.2516C15.5765 11.853 16.1042 11.6212 16.6598 11.6055ZM24.3337 11.6055C24.6191 11.5974 24.9032 11.6466 25.1692 11.7503C25.4353 11.8539 25.6778 12.0098 25.8825 12.2089C26.0872 12.4079 26.25 12.6459 26.3611 12.9089C26.4722 13.1719 26.5295 13.4545 26.5295 13.74C26.5295 14.0255 26.4722 14.3082 26.3611 14.5712C26.25 14.8341 26.0872 15.0722 25.8825 15.2712C25.6778 15.4702 25.4353 15.6262 25.1692 15.7298C24.9032 15.8334 24.6191 15.8827 24.3337 15.8746C23.778 15.8589 23.2504 15.6271 22.8629 15.2285C22.4754 14.8299 22.2586 14.2959 22.2586 13.74C22.2586 13.1841 22.4754 12.6502 22.8629 12.2516C23.2504 11.853 23.778 11.6212 24.3337 11.6055ZM22.2837 24.4812L22.4767 24.418H10.6875C9.66807 24.418 8.6904 24.8229 7.96956 25.5438C7.24872 26.2646 6.84375 27.2423 6.84375 28.2617V29.8112C6.84358 30.7338 7.04269 31.6455 7.42747 32.4841C7.81224 33.3226 8.37359 34.0681 9.07312 34.6697C11.7432 36.964 15.5682 38.0863 20.5036 38.0863C24.0501 38.0863 27.0243 37.5072 29.4091 36.3302C28.9558 36.2434 28.533 36.0396 28.1827 35.7391C27.8324 35.4385 27.5667 35.0516 27.4121 34.6167L27.4053 34.5962L26.6365 32.2302C26.4826 31.7668 26.2229 31.344 25.878 30.9985L25.2647 30.5509L24.6514 30.2383L22.2854 29.4695L22.2649 29.461C21.7516 29.2782 21.3075 28.9411 20.9934 28.496C20.6794 28.0508 20.5108 27.5193 20.5108 26.9745C20.5108 26.4297 20.6794 25.8982 20.9934 25.453C21.3075 25.0078 21.7516 24.6707 22.2649 24.488L22.2837 24.4812ZM27.0875 29.7924C27.6223 30.3255 28.0233 30.9776 28.2577 31.6955L29.023 34.0478C29.0867 34.2298 29.2053 34.3874 29.3624 34.4989C29.5196 34.6105 29.7076 34.6704 29.9003 34.6704C30.093 34.6704 30.2809 34.6105 30.4381 34.4989C30.5953 34.3874 30.7139 34.2298 30.7775 34.0478L31.5411 31.6955C31.7785 30.98 32.1798 30.3299 32.7132 29.7972C33.2465 29.2645 33.897 28.8638 34.6127 28.6273L36.9668 27.862C37.1468 27.7969 37.3023 27.6779 37.4122 27.5212C37.5222 27.3646 37.5811 27.1778 37.5811 26.9864C37.5811 26.7951 37.5222 26.6083 37.4122 26.4517C37.3023 26.295 37.1468 26.176 36.9668 26.1109L36.9207 26.099L34.5666 25.3336C33.8515 25.0959 33.2016 24.6948 32.6685 24.1623C32.1353 23.6297 31.7335 22.9803 31.495 22.2655L30.7297 19.9131C30.6657 19.7318 30.547 19.5748 30.3901 19.4637C30.2331 19.3526 30.0456 19.293 29.8533 19.293C29.661 19.293 29.4735 19.3526 29.3165 19.4637C29.1595 19.5748 29.0409 19.7318 28.9769 19.9131L28.2116 22.2655L28.1911 22.3236C27.9517 23.0206 27.5567 23.6539 27.036 24.1754C26.5154 24.697 25.8827 25.0931 25.1861 25.3336L22.8338 26.099C22.6538 26.1641 22.4982 26.283 22.3883 26.4397C22.2784 26.5964 22.2194 26.7831 22.2194 26.9745C22.2194 27.1659 22.2784 27.3526 22.3883 27.5093C22.4982 27.6659 22.6538 27.7849 22.8338 27.85L25.1861 28.6153C25.9036 28.8545 26.5545 29.2577 27.0875 29.7924ZM39.326 36.3165L40.6329 36.7402L40.6602 36.747C40.7611 36.7824 40.8485 36.8482 40.9104 36.9354C40.9722 37.0227 41.0055 37.127 41.0055 37.2339C41.0055 37.3408 40.9722 37.4451 40.9104 37.5323C40.8485 37.6195 40.7611 37.6854 40.6602 37.7208L39.3516 38.1444C38.9542 38.277 38.5931 38.5001 38.2969 38.7964C38.0007 39.0926 37.7775 39.4537 37.645 39.8511L37.2213 41.1562C37.186 41.2571 37.1201 41.3446 37.0329 41.4064C36.9457 41.4683 36.8414 41.5015 36.7345 41.5015C36.6275 41.5015 36.5232 41.4683 36.436 41.4064C36.3488 41.3446 36.283 41.2571 36.2476 41.1562L35.8205 39.8511C35.6888 39.4529 35.4662 39.0909 35.1703 38.7938C34.8743 38.4967 34.5132 38.2726 34.1156 38.1393L32.807 37.7139C32.7061 37.6786 32.6187 37.6127 32.5568 37.5255C32.495 37.4383 32.4617 37.334 32.4617 37.227C32.4617 37.1201 32.495 37.0158 32.5568 36.9286C32.6187 36.8414 32.7061 36.7755 32.807 36.7402L34.1156 36.3165C34.5077 36.1806 34.8633 35.956 35.1545 35.6603C35.4458 35.3646 35.6649 35.0058 35.7949 34.6116L36.2203 33.3047C36.2556 33.2038 36.3215 33.1164 36.4087 33.0545C36.4959 32.9927 36.6002 32.9595 36.7071 32.9595C36.8141 32.9595 36.9183 32.9927 37.0056 33.0545C37.0928 33.1164 37.1586 33.2038 37.194 33.3047L37.6194 34.6099C37.7519 35.0073 37.9751 35.3684 38.2713 35.6646C38.5675 35.9608 38.9286 36.184 39.326 36.3165Z" fill="white"/>
  </g>
  <defs>
    <clipPath id="clip0_2898_396">
      <rect width="41" height="41" fill="white" transform="translate(0 0.5)"/>
    </clipPath>
  </defs>
</svg>