<svg xmlns="http://www.w3.org/2000/svg" width="43" height="42" viewBox="0 0 43 42" fill="none">
  <path d="M26.1049 11.9902C26.8791 10.7329 27.1221 9.21951 26.7804 7.78304C26.4388 6.34657 25.5405 5.10465 24.2831 4.33049C23.0258 3.55634 21.5125 3.31336 20.076 3.65501C18.6395 3.99666 17.3976 4.89495 16.6234 6.15228C15.7803 5.48525 14.7343 5.12671 13.6592 5.13621C12.5841 5.14571 11.5446 5.52267 10.7133 6.20449C9.88206 6.88632 9.30902 7.83198 9.08939 8.88443C8.86975 9.93688 9.01673 11.0328 9.50591 11.9902H8.1338C7.11188 11.9906 6.13197 12.3969 5.40953 13.1197C4.68709 13.8425 4.28125 14.8225 4.28125 15.8445V29.5485C4.28125 30.5707 4.68732 31.551 5.41014 32.2739C6.13295 32.9967 7.1133 33.4027 8.13551 33.4027H27.8351C28.8573 33.4027 29.8376 32.9967 30.5604 32.2739C31.2832 31.551 31.6893 30.5707 31.6893 29.5485V28.9866L35.2284 31.2992C35.5514 31.5103 35.9254 31.6303 36.311 31.6463C36.6966 31.6624 37.0793 31.574 37.4187 31.3904C37.7582 31.2068 38.0417 30.9349 38.2393 30.6034C38.4369 30.272 38.5413 29.8933 38.5413 29.5074V15.8856C38.5413 15.4997 38.4369 15.121 38.2393 14.7895C38.0417 14.458 37.7582 14.1861 37.4187 14.0026C37.0793 13.819 36.6966 13.7305 36.311 13.7466C35.9254 13.7627 35.5514 13.8826 35.2284 14.0938L31.6893 16.4063V15.8445C31.6893 14.8222 31.2832 13.8419 30.5604 13.1191C29.8376 12.3963 28.8573 11.9902 27.8351 11.9902H26.1049ZM18.4135 8.99244C18.4135 8.19738 18.7294 7.43489 19.2916 6.8727C19.8537 6.31051 20.6162 5.99468 21.4113 5.99468C22.2063 5.99468 22.9688 6.31051 23.531 6.8727C24.0932 7.43489 24.4091 8.19738 24.4091 8.99244C24.4091 9.78749 24.0932 10.55 23.531 11.1122C22.9688 11.6744 22.2063 11.9902 21.4113 11.9902C20.6162 11.9902 19.8537 11.6744 19.2916 11.1122C18.7294 10.55 18.4135 9.78749 18.4135 8.99244ZM31.6893 19.476L35.9718 16.6753V28.7143L31.6893 25.9169V19.476ZM15.844 9.84894C15.844 10.4168 15.6184 10.9615 15.2169 11.363C14.8153 11.7646 14.2707 11.9902 13.7028 11.9902C13.1349 11.9902 12.5902 11.7646 12.1887 11.363C11.7871 10.9615 11.5615 10.4168 11.5615 9.84894C11.5615 9.28104 11.7871 8.73641 12.1887 8.33484C12.5902 7.93328 13.1349 7.70768 13.7028 7.70768C14.2707 7.70768 14.8153 7.93328 15.2169 8.33484C15.6184 8.73641 15.844 9.28104 15.844 9.84894ZM8.13551 14.5597H27.8351C28.1758 14.5597 28.5026 14.6951 28.7435 14.936C28.9845 15.1769 29.1198 15.5037 29.1198 15.8445V29.5485C29.1198 29.8892 28.9845 30.216 28.7435 30.4569C28.5026 30.6979 28.1758 30.8332 27.8351 30.8332H8.13551C7.79477 30.8332 7.46799 30.6979 7.22705 30.4569C6.98611 30.216 6.85076 29.8892 6.85076 29.5485V15.8445C6.85076 15.5037 6.98611 15.1769 7.22705 14.936C7.46799 14.6951 7.79477 14.5597 8.13551 14.5597Z" fill="black" stroke="white"/>
</svg>