<svg xmlns="http://www.w3.org/2000/svg" width="25" height="25" viewBox="0 0 25 25" fill="none">
  <path d="M12.9142 4.99998L5.48966 12.425C4.64589 13.2689 4.17188 14.4134 4.17188 15.6067C4.17188 16.8001 4.64589 17.9446 5.48966 18.7885C5.90753 19.2064 6.40361 19.5378 6.94958 19.764C7.49554 19.9901 8.08071 20.1065 8.67166 20.1065C9.26262 20.1065 9.84778 19.9901 10.3938 19.764C10.9397 19.5378 11.4358 19.2064 11.8537 18.7885L20.6927 9.94998C20.9713 9.6714 21.1923 9.34066 21.3431 8.97665C21.4939 8.61264 21.5715 8.22249 21.5715 7.82848C21.5715 7.43448 21.4939 7.04433 21.3431 6.68032C21.1923 6.31631 20.9713 5.98557 20.6927 5.70698C20.4141 5.42835 20.0833 5.20733 19.7193 5.05654C19.3553 4.90574 18.9652 4.82812 18.5712 4.82812C18.1772 4.82812 17.787 4.90574 17.423 5.05654C17.059 5.20733 16.7282 5.42835 16.4497 5.70698L7.61116 14.546C7.47185 14.6853 7.36134 14.8506 7.28594 15.0327C7.21054 15.2147 7.17173 15.4097 7.17173 15.6067C7.17173 15.8037 7.21054 15.9988 7.28594 16.1808C7.36134 16.3628 7.47185 16.5282 7.61116 16.6675C7.89246 16.9487 8.27392 17.1067 8.67166 17.1067C9.06941 17.1067 9.45087 16.9487 9.73216 16.6675L17.1572 9.24248" stroke="#B1B1B1" stroke-width="2" stroke-linecap="round" stroke-linejoin="round"/>
</svg>