<svg xmlns="http://www.w3.org/2000/svg" width="20" height="21" viewBox="0 0 20 21" fill="none">
  <g opacity="0.7" clip-path="url(#clip0_2898_379)">
    <path d="M9.96264 0.613281C4.65761 0.613281 0.359375 4.91152 0.359375 10.2165C0.359375 15.5216 4.65761 19.8198 9.96264 19.8198C15.2677 19.8198 19.5659 15.5216 19.5659 10.2165C19.5659 4.91152 15.2677 0.613281 9.96264 0.613281ZM9.96264 17.9611C5.69151 17.9611 2.21807 14.4877 2.21807 10.2165C2.21807 5.94541 5.69151 2.47198 9.96264 2.47198C14.2338 2.47198 17.7072 5.94541 17.7072 10.2165C17.7072 14.4877 14.2338 17.9611 9.96264 17.9611ZM6.86481 9.59698C7.5502 9.59698 8.10394 9.04324 8.10394 8.35785C8.10394 7.67245 7.5502 7.11872 6.86481 7.11872C6.17942 7.11872 5.62568 7.67245 5.62568 8.35785C5.62568 9.04324 6.17942 9.59698 6.86481 9.59698ZM13.0605 9.59698C13.7459 9.59698 14.2996 9.04324 14.2996 8.35785C14.2996 7.67245 13.7459 7.11872 13.0605 7.11872C12.3751 7.11872 11.8213 7.67245 11.8213 8.35785C11.8213 9.04324 12.3751 9.59698 13.0605 9.59698ZM13.2154 12.4083C12.4099 13.3763 11.2211 13.9339 9.96264 13.9339C8.70414 13.9339 7.51535 13.3802 6.70992 12.4083C6.38077 12.0133 5.79219 11.9629 5.40109 12.2882C5.00611 12.6174 4.95577 13.2021 5.28105 13.597C6.44273 14.9911 8.15041 15.7888 9.96264 15.7888C11.7749 15.7888 13.4825 14.9911 14.6442 13.597C14.9734 13.2021 14.9192 12.6174 14.5242 12.2882C14.1331 11.9629 13.5445 12.0133 13.2154 12.4083Z" fill="#909090"/>
  </g>
  <defs>
    <clipPath id="clip0_2898_379">
      <rect width="19.2065" height="19.8261" fill="white" transform="translate(0.359375 0.304688)"/>
    </clipPath>
  </defs>
</svg>