<svg xmlns="http://www.w3.org/2000/svg" width="43" height="43" viewBox="0 0 43 43" fill="none">
  <path d="M21.4609 30.7433C21.8559 30.7433 22.189 30.6077 22.4602 30.3364C22.7314 30.0652 22.867 29.7321 22.867 29.3372C22.867 28.9422 22.7302 28.6092 22.4566 28.3379C22.1854 28.0667 21.8523 27.9311 21.4574 27.9311C21.0624 27.9311 20.7293 28.0673 20.4581 28.3397C20.1869 28.6121 20.0519 28.9452 20.0531 29.339C20.0531 29.7339 20.1887 30.067 20.4599 30.3382C20.7335 30.6095 21.0672 30.7451 21.4609 30.7451M20.5384 24.8352H22.2621C22.3073 24.0596 22.4531 23.4291 22.6993 22.9438C22.9455 22.4596 23.4517 21.841 24.2178 21.088C25.0148 20.2922 25.6072 19.579 25.9951 18.9485C26.3829 18.3181 26.5774 17.5888 26.5785 16.7609C26.5785 15.3548 26.0849 14.2342 25.0975 13.3991C24.109 12.564 22.9396 12.1465 21.5894 12.1465C20.3059 12.1465 19.2162 12.495 18.3204 13.1921C17.4247 13.8904 16.7686 14.6922 16.3523 15.5975L17.9939 16.2773C18.2794 15.6278 18.688 15.0538 19.2198 14.5554C19.7515 14.0558 20.5188 13.806 21.5216 13.806C22.6779 13.806 23.5225 14.1236 24.0554 14.7588C24.5896 15.3941 24.8566 16.0923 24.8566 16.8537C24.8566 17.4723 24.6895 18.0242 24.3552 18.5096C24.0221 18.9961 23.5879 19.485 23.0526 19.9763C22.0177 20.9304 21.3396 21.7393 21.0184 22.4031C20.6972 23.0669 20.5372 23.8776 20.5384 24.8352ZM21.4163 37.4704C19.1966 37.4704 17.1088 37.0493 15.1532 36.2071C13.1987 35.3636 11.4982 34.2193 10.0516 32.7739C8.60508 31.3286 7.4601 29.6298 6.61669 27.6777C5.77327 25.7256 5.35156 23.6385 5.35156 21.4163C5.35156 19.1942 5.77327 17.1065 6.61669 15.1532C7.45892 13.1987 8.60151 11.4982 10.0445 10.0516C11.4874 8.60508 13.1868 7.4601 15.1425 6.61669C17.0981 5.77327 19.1859 5.35156 21.4056 5.35156C23.6254 5.35156 25.7131 5.77327 27.6688 6.61669C29.6233 7.45892 31.3238 8.60211 32.7703 10.0463C34.2169 11.4904 35.3619 13.1897 36.2053 15.1442C37.0487 17.0987 37.4704 19.1859 37.4704 21.4056C37.4704 23.6254 37.0493 25.7131 36.2071 27.6688C35.3648 29.6245 34.2204 31.325 32.7739 32.7703C31.3274 34.2157 29.6286 35.3607 27.6777 36.2053C25.7268 37.0499 23.6397 37.4716 21.4163 37.4704ZM21.411 35.686C25.3961 35.686 28.7715 34.3031 31.5373 31.5373C34.3031 28.7715 35.686 25.3961 35.686 21.411C35.686 17.4259 34.3031 14.0504 31.5373 11.2846C28.7715 8.51884 25.3961 7.13594 21.411 7.13594C17.4259 7.13594 14.0504 8.51884 11.2846 11.2846C8.51884 14.0504 7.13594 17.4259 7.13594 21.411C7.13594 25.3961 8.51884 28.7715 11.2846 31.5373C14.0504 34.3031 17.4259 35.686 21.411 35.686Z" fill="black"/>
</svg>