<svg xmlns="http://www.w3.org/2000/svg" width="30" height="30" viewBox="0 0 30 30" fill="none">
  <rect x="1.60156" y="1.60156" width="27.6211" height="27.6211" rx="5.25" stroke="black" stroke-width="1.5"/>
  <path d="M23.9062 20.6221C24.1335 20.6221 24.352 20.7124 24.5127 20.873C24.6731 21.0336 24.7626 21.2515 24.7627 21.4785C24.7627 21.7057 24.6734 21.9243 24.5127 22.085C24.352 22.2456 24.1335 22.335 23.9062 22.335H6.91895C6.69194 22.3349 6.47406 22.2454 6.31348 22.085C6.15282 21.9243 6.0625 21.7057 6.0625 21.4785C6.06256 21.2514 6.15287 21.0337 6.31348 20.873C6.47408 20.7124 6.69183 20.6221 6.91895 20.6221H23.9062ZM23.9062 14.5547C24.1335 14.5547 24.352 14.645 24.5127 14.8057C24.6734 14.9663 24.7627 15.1849 24.7627 15.4121C24.7626 15.6391 24.6731 15.857 24.5127 16.0176C24.352 16.1782 24.1335 16.2686 23.9062 16.2686H6.91895C6.69183 16.2685 6.47408 16.1782 6.31348 16.0176C6.15287 15.857 6.06257 15.6392 6.0625 15.4121C6.0625 15.1849 6.15282 14.9663 6.31348 14.8057C6.47406 14.6452 6.69194 14.5548 6.91895 14.5547H23.9062ZM16.8828 8.48828L16.9053 8.71289C16.9457 9.11608 17.025 9.50392 17.1426 9.87598L17.2451 10.2012H6.91895C6.69194 10.2011 6.47406 10.1116 6.31348 9.95117C6.15282 9.79051 6.0625 9.57193 6.0625 9.34473C6.06256 9.11761 6.15287 8.89986 6.31348 8.73926C6.47408 8.57866 6.69182 8.48835 6.91895 8.48828H16.8828ZM23.9062 8.48828C24.1335 8.48828 24.352 8.5786 24.5127 8.73926C24.6731 8.89984 24.7626 9.11772 24.7627 9.34473C24.7627 9.57193 24.6734 9.79051 24.5127 9.95117C24.352 10.1118 24.1335 10.2012 23.9062 10.2012H21.9414L21.8701 10.0762C21.8372 10.019 21.8159 9.95217 21.8174 9.87891C21.8188 9.80671 21.8416 9.74395 21.8711 9.69336C21.9259 9.59951 22.013 9.53195 22.085 9.48535C22.2321 9.39014 22.4415 9.30414 22.6221 9.22852C22.8169 9.14691 22.9897 9.07358 23.1104 8.99805C23.1611 8.96624 23.1891 8.93999 23.2041 8.92383L23.1768 8.75781L23.3643 8.68359L23.8145 8.50586L23.8594 8.48828H23.9062Z" fill="black" stroke="black" stroke-width="0.5"/>
  <path d="M22.0881 11.77C23.7635 11.77 25.1216 10.4119 25.1216 8.73657C25.1216 7.06124 23.7635 5.70312 22.0881 5.70312C20.4128 5.70312 19.0547 7.06124 19.0547 8.73657C19.0547 10.4119 20.4128 11.77 22.0881 11.77Z" fill="black"/>
</svg>