<svg xmlns="http://www.w3.org/2000/svg" width="216" height="58" viewBox="0 0 216 58" fill="none">
  <path d="M16.1875 7.64844H20.6486V50.5954H16.1875V7.64844ZM25.1097 7.64844H27.3402V50.5954H25.1097V7.64844ZM29.5707 7.64844H34.0318V50.5954H29.5707V7.64844ZM36.2624 7.64844H40.7234V50.5954H36.2624V7.64844ZM42.954 7.64844H47.4151V50.5954H42.954V7.64844ZM49.6456 7.64844H51.8761V50.5954H49.6456V7.64844ZM54.1067 7.64844H60.7983V50.5954H54.1067V7.64844Z" fill="#333333"/>
  <path d="M111.906 7.64844H116.367V50.5954H111.906V7.64844ZM120.828 7.64844H123.059V50.5954H120.828V7.64844ZM125.289 7.64844H129.751V50.5954H125.289V7.64844ZM131.981 7.64844H136.442V50.5954H131.981V7.64844ZM138.673 7.64844H143.134V50.5954H138.673V7.64844ZM145.364 7.64844H147.595V50.5954H145.364V7.64844ZM149.825 7.64844H156.517V50.5954H149.825V7.64844Z" fill="#333333"/>
  <path d="M64.4062 7.36328H68.8673V50.3103H64.4062V7.36328ZM73.3284 7.36328H75.559V50.3103H73.3284V7.36328ZM77.7895 7.36328H82.2506V50.3103H77.7895V7.36328ZM84.4811 7.36328H88.9422V50.3103H84.4811V7.36328ZM91.1727 7.36328H95.6338V50.3103H91.1727V7.36328ZM97.8644 7.36328H100.095V50.3103H97.8644V7.36328ZM102.325 7.36328H109.017V50.3103H102.325V7.36328Z" fill="#333333"/>
  <path d="M160.094 7.36328H164.555V50.3103H160.094V7.36328ZM169.016 7.36328H171.246V50.3103H169.016V7.36328ZM173.477 7.36328H177.938V50.3103H173.477V7.36328ZM180.169 7.36328H184.63V50.3103H180.169V7.36328ZM186.86 7.36328H191.321V50.3103H186.86V7.36328ZM193.552 7.36328H195.782V50.3103H193.552V7.36328ZM198.013 7.36328H204.416V50.3103H198.013V7.36328Z" fill="#333333"/>
</svg>