<svg xmlns="http://www.w3.org/2000/svg" width="43" height="43" viewBox="0 0 43 43" fill="none">
  <path d="M30.6205 12.211C29.9246 11.5149 29.5172 10.5818 29.4797 9.59831C29.4421 8.61481 29.7773 7.65339 30.418 6.90633C30.471 6.84419 30.4986 6.76433 30.4952 6.68273C30.4918 6.60114 30.4576 6.52385 30.3996 6.46636L26.7085 2.77103C26.6475 2.71004 26.5647 2.67578 26.4785 2.67578C26.3922 2.67578 26.3095 2.71004 26.2484 2.77103L20.365 8.65446C20.1479 8.87144 19.9844 9.13607 19.8874 9.42732C19.7908 9.71922 19.6275 9.98458 19.4104 10.2024C19.1933 10.4201 18.9285 10.5844 18.637 10.682C18.3455 10.7791 18.0807 10.9426 17.8633 11.1596L2.77493 26.2445C2.71395 26.3056 2.67969 26.3883 2.67969 26.4746C2.67969 26.5608 2.71395 26.6436 2.77493 26.7046L6.46609 30.3957C6.52358 30.4537 6.60087 30.4879 6.68246 30.4913C6.76405 30.4947 6.84392 30.4671 6.90605 30.4141C7.65295 29.7727 8.61458 29.437 9.59842 29.4743C10.5823 29.5116 11.5157 29.9192 12.2119 30.6153C12.9081 31.3115 13.3156 32.245 13.3529 33.2288C13.3902 34.2126 13.0545 35.1743 12.4131 35.9212C12.3601 35.9833 12.3325 36.0632 12.336 36.1448C12.3394 36.2264 12.3735 36.3036 12.4315 36.3611L16.1226 40.0523C16.1837 40.1133 16.2664 40.1475 16.3527 40.1475C16.4389 40.1475 16.5217 40.1133 16.5827 40.0523L31.6718 24.964C31.8888 24.7466 32.0523 24.4817 32.1494 24.1903C32.2461 23.8984 32.4094 23.633 32.6265 23.4152C32.8435 23.1974 33.1083 23.0332 33.3999 22.9356C33.6912 22.8387 33.9558 22.6752 34.1728 22.458L40.0562 16.5746C40.1172 16.5136 40.1514 16.4308 40.1514 16.3446C40.1514 16.2583 40.1172 16.1756 40.0562 16.1146L36.365 12.4234C36.3076 12.3654 36.2303 12.3313 36.1487 12.3279C36.0671 12.3245 35.9872 12.352 35.9251 12.405C35.179 13.0469 34.2182 13.3834 33.2347 13.3475C32.2513 13.3115 31.3176 12.9056 30.6205 12.211Z" stroke="black" stroke-width="1.713" stroke-miterlimit="10"/>
  <path d="M20.9513 11.7481L19.5703 10.3672M24.6332 15.4301L23.7123 14.51M28.3152 19.1129L27.3951 18.192M32.458 23.2549L31.0771 21.8739" stroke="black" stroke-width="1.713" stroke-miterlimit="10" stroke-linecap="round"/>
</svg>