<svg xmlns="http://www.w3.org/2000/svg" width="16" height="17" viewBox="0 0 16 17" fill="none">
  <path d="M3 15.5H13V13C12.9987 12.0721 12.6295 11.1827 11.9734 10.5266C11.3173 9.8705 10.4279 9.50132 9.5 9.5H6.5C5.57215 9.50132 4.68268 9.8705 4.02659 10.5266C3.3705 11.1827 3.00132 12.0721 3 13V15.5ZM4.5 5C4.5 5.69223 4.70527 6.36892 5.08986 6.9445C5.47444 7.52007 6.02107 7.96867 6.66061 8.23358C7.30015 8.49848 8.00388 8.5678 8.68282 8.43275C9.36175 8.2977 9.98539 7.96436 10.4749 7.47487C10.9644 6.98539 11.2977 6.36175 11.4327 5.68282C11.5678 5.00388 11.4985 4.30015 11.2336 3.66061C10.9687 3.02107 10.5201 2.47444 9.9445 2.08986C9.36892 1.70527 8.69223 1.5 8 1.5C7.07174 1.5 6.1815 1.86875 5.52513 2.52513C4.86875 3.1815 4.5 4.07174 4.5 5Z" fill="white"/>
</svg>